<svg id="Layer_1" enable-background="new 0 0 512 512" height="512" viewBox="0 0 512 512" width="512" xmlns="http://www.w3.org/2000/svg"><g><g><g><path d="m488.61 216.339c-6.615 0-19.396 10.517-25.29 25.47h-13.104c-3.024-41.817-19.303-79.965-44.665-110.286l24.856-24.809c14.762 6.414 31.25 4.831 35.928.162 6.205-6.193-1.874-24.298-18.045-40.438s-34.311-24.204-40.516-18.01c-4.678 4.669-6.264 21.125.162 35.858l-24.659 24.611c-29.98-25.863-67.952-42.737-109.717-46.464v-13.371c14.983-5.883 25.52-18.639 25.52-25.241 0-8.759-18.54-15.859-41.409-15.859-22.87 0-41.409 7.1-41.409 15.859 0 6.602 10.537 19.358 25.52 25.241v13.096c-41.898 3.018-80.119 19.265-110.498 44.579l-24.857-24.809c6.427-14.734 4.84-31.19.163-35.858-6.205-6.193-24.345 1.87-40.516 18.01s-24.25 34.245-18.045 40.438c4.678 4.669 21.166 6.252 35.928-.162l24.659 24.611c-25.913 29.922-42.819 67.821-46.553 109.506h-13.384c-5.894-14.954-18.675-25.47-25.29-25.47-8.776 0-15.89 18.504-15.89 41.329 0 22.826 7.114 41.329 15.89 41.329 6.615 0 19.396-10.517 25.29-25.471h13.104c3.024 41.817 19.303 79.965 44.665 110.286l-24.857 24.809c-14.762-6.414-31.25-4.831-35.928-.162-6.205 6.193 1.874 24.298 18.045 40.438s34.311 24.204 40.516 18.01c4.678-4.669 6.264-21.125-.163-35.858l24.659-24.611c29.98 25.863 67.952 42.737 109.717 46.464v13.373c-14.983 5.883-25.52 18.639-25.52 25.241 0 8.759 18.54 15.859 41.409 15.859s41.409-7.1 41.409-15.859c0-6.602-10.537-19.358-25.52-25.241v-13.096c41.898-3.018 80.119-19.265 110.498-44.579l24.857 24.809c-6.427 14.734-4.84 31.19-.163 35.858 6.205 6.193 24.345-1.87 40.516-18.01s24.25-34.245 18.045-40.438c-4.678-4.669-21.166-6.252-35.928.162l-24.659-24.611c25.913-29.922 42.819-67.821 46.553-109.506h13.382c5.894 14.954 18.675 25.471 25.29 25.471 8.776 0 15.89-18.504 15.89-41.329s-7.11-41.331-15.886-41.331z" fill="#81f0af"/><ellipse cx="179.642" cy="180.508" fill="#60bd8e" rx="43.607" ry="43.49"/><path d="m179.642 137.018c-5.271 0-10.323.933-15 2.641 16.694 6.099 28.607 22.086 28.607 40.848s-11.913 34.749-28.607 40.848c4.677 1.709 9.729 2.641 15 2.641 24.084 0 43.607-19.471 43.607-43.49s-19.523-43.488-43.607-43.488z" fill="#50b381"/><ellipse cx="379.612" cy="292.339" fill="#60bd8e" rx="21.804" ry="21.745"/><path d="m379.612 270.594c-3.606 0-7.004.878-10 2.424 7.01 3.616 11.803 10.908 11.803 19.321s-4.794 15.705-11.803 19.321c2.996 1.546 6.394 2.424 10 2.424 12.042 0 21.803-9.735 21.803-21.745.001-12.01-9.761-21.745-21.803-21.745z" fill="#50b381"/><ellipse cx="307.429" cy="364.407" fill="#60bd8e" rx="32.314" ry="32.227"/><path d="m307.429 332.181c-5.416 0-10.516 1.336-15 3.684 10.291 5.39 17.314 16.146 17.314 28.543s-7.023 23.152-17.314 28.543c4.484 2.348 9.584 3.684 15 3.684 17.846 0 32.314-14.428 32.314-32.227s-14.468-32.227-32.314-32.227z" fill="#50b381"/></g><g><path d="m488.61 216.339c-6.615 0-19.396 10.517-25.29 25.47h-13.104c-3.024-41.817-19.303-79.965-44.665-110.286l24.856-24.809c14.762 6.414 31.25 4.831 35.928.162 6.205-6.193-1.874-24.298-18.045-40.438s-34.311-24.204-40.517-18.01c-4.677 4.669-6.264 21.125.162 35.858l-24.659 24.611c-29.98-25.863-67.952-42.737-109.717-46.464v-13.371c14.983-5.883 25.52-18.639 25.52-25.241 0-8.759-18.539-15.859-41.409-15.859s-41.409 7.1-41.409 15.859c0 6.602 10.537 19.358 25.52 25.241v13.096c-2.839.204-5.66.475-8.464.8 98.161 10.074 174.733 93.01 174.733 193.833 0 99.062-73.922 180.854-169.612 193.237v12.911c-14.983 5.883-25.52 18.639-25.52 25.241 0 8.759 18.54 15.859 41.409 15.859 22.87 0 41.409-7.1 41.409-15.859 0-6.602-10.537-19.358-25.52-25.241v-13.096c41.898-3.018 80.119-19.265 110.498-44.578l24.857 24.809c-6.427 14.734-4.84 31.19-.163 35.858 6.205 6.193 24.345-1.87 40.516-18.01s24.25-34.245 18.045-40.438c-4.678-4.669-21.166-6.252-35.928.162l-24.659-24.611c25.913-29.922 42.819-67.821 46.553-109.506h13.382c5.894 14.954 18.675 25.471 25.29 25.471 8.776 0 15.89-18.504 15.89-41.33s-7.111-41.331-15.887-41.331z" fill="#4fe88f"/></g></g><g fill="#060606"><path d="m458.477 440.205c-5.472 0-9.36-6.908-6.259-11.623 5.665-8.613 6.68-14.336 6.295-15.914-2.697-1.884-15.061-3.541-27.479 1.855-2.825 1.225-6.109.604-8.287-1.571l-24.658-24.611c-2.786-2.781-2.948-7.243-.372-10.218 25.775-29.763 41.25-66.163 44.754-105.266.858-9.599 24.659-10.118 27.828-2.081 4.942 12.539 14.804 20.076 18.133 20.69 2.592-1.49 8.569-13.064 8.569-33.798 0-20.763-5.994-32.341-8.58-33.804-3.23.553-13.158 8.102-18.122 20.696-3.172 8.045-26.859 7.486-27.562-2.209-2.832-39.16-17.68-75.819-42.938-106.015-2.494-2.981-2.297-7.375.455-10.121l24.856-24.809c2.178-2.174 5.463-2.797 8.287-1.57 12.366 5.375 24.682 3.752 27.485 1.84.761-2.899-3.231-15.299-17.89-29.93-14.714-14.685-27.163-18.646-30.038-17.855-1.886 2.673-3.548 15.008 1.855 27.397 1.234 2.83.609 6.126-1.576 8.307l-24.658 24.612c-2.778 2.774-7.226 2.934-10.197.37-29.822-25.728-66.298-41.175-105.484-44.672-9.603-.857-10.122-24.664-2.074-27.824 12.53-4.919 20.089-14.74 20.727-18.072-1.523-2.592-13.139-8.546-33.875-8.546-20.768 0-32.387 5.973-33.882 8.558.573 3.228 8.143 13.118 20.733 18.061 8.054 3.163 7.5 26.86-2.202 27.558-16.77 1.208-33.283 4.665-49.082 10.273-9.139 3.245-14.157-10.892-5.019-14.136 14.878-5.282 30.34-8.797 46.061-10.477v-1.388c-14.248-7.179-25.52-20.152-25.52-30.09 0-16.049 25.354-23.359 48.91-23.359s48.909 7.31 48.909 23.359c0 9.938-11.272 22.911-25.52 30.09v1.777c37.435 4.605 72.361 19.387 101.762 43.067l16.38-16.348c-4.987-15.135-3.767-32.262 3.273-39.288 11.36-11.338 34.457 1.389 51.112 18.01 13.778 13.752 22.337 29.002 22.337 39.801 0 5.762-2.334 9.3-4.292 11.254-7.037 7.023-24.195 8.236-39.352 3.256l-16.652 16.62c23.228 29.73 37.45 64.819 41.444 102.248h1.404c7.192-14.22 20.184-25.471 30.132-25.471 16.07 0 23.39 25.312 23.39 48.83s-7.319 48.83-23.39 48.83c-9.948 0-22.939-11.251-30.132-25.471h-1.797c-4.614 37.358-19.418 72.208-43.136 101.55l16.372 16.341c15.16-4.981 32.317-3.767 39.353 3.255 7.01 6.996 5.362 19.626-4.521 34.651-1.438 2.192-3.831 3.381-6.27 3.381z"/><path d="m254.328 511.538c-23.556 0-48.909-7.31-48.909-23.359 0-9.938 11.272-22.911 25.52-30.09v-1.777c-37.435-4.605-72.361-19.387-101.762-43.067l-16.38 16.348c4.986 15.135 3.767 32.262-3.273 39.288-3.01 3.004-6.846 4.319-11.166 4.319-11.984.001-27.705-10.112-39.947-22.33-13.777-13.751-22.336-29.002-22.336-39.8 0-5.762 2.333-9.301 4.292-11.255 7.036-7.023 24.194-8.237 39.352-3.256l16.652-16.62c-23.228-29.731-37.45-64.82-41.444-102.248h-1.404c-7.192 14.22-20.184 25.471-30.132 25.471-16.07 0-23.39-25.312-23.39-48.83s7.319-48.83 23.39-48.83c9.948 0 22.939 11.251 30.132 25.471h1.797c4.614-37.357 19.418-72.207 43.136-101.55l-16.373-16.341c-15.157 4.982-32.315 3.768-39.352-3.255-1.958-1.954-4.292-5.493-4.292-11.255 0-10.798 8.559-26.049 22.337-39.8 16.655-16.622 39.754-29.346 51.113-18.01 7.04 7.026 8.259 24.152 3.273 39.287l16.662 16.63c6.16-4.786 12.623-9.238 19.284-13.28 8.292-5.027 16.072 7.793 7.781 12.824-7.979 4.841-15.65 10.317-22.803 16.276-2.978 2.479-7.355 2.284-10.099-.454l-24.857-24.809c-2.185-2.181-2.811-5.478-1.576-8.307 5.379-12.332 3.757-24.61 1.845-27.4-2.895-.771-15.332 3.193-30.025 17.859-14.683 14.652-18.666 27.067-17.89 29.942 2.688 1.884 15.058 3.546 27.482-1.853 2.823-1.227 6.109-.604 8.287 1.57l24.659 24.611c2.786 2.781 2.948 7.243.371 10.218-25.775 29.764-41.25 66.164-44.752 105.265-.86 9.598-24.662 10.12-27.83 2.081-4.942-12.538-14.803-20.075-18.132-20.689-2.592 1.489-8.57 13.064-8.57 33.798 0 20.763 5.995 32.341 8.581 33.804 3.229-.553 13.157-8.101 18.121-20.695 3.17-8.046 26.861-7.487 27.563 2.209 2.832 39.159 17.679 75.818 42.937 106.015 2.494 2.981 2.296 7.375-.455 10.121l-24.856 24.808c-2.178 2.174-5.463 2.797-8.287 1.57-12.367-5.374-24.681-3.752-27.486-1.84-.761 2.898 3.231 15.298 17.891 29.929 14.713 14.686 27.162 18.644 30.038 17.856 1.885-2.673 3.547-15.008-1.857-27.397-1.234-2.83-.608-6.126 1.576-8.307l24.659-24.611c2.778-2.773 7.224-2.935 10.197-.37 29.823 25.728 66.299 41.175 105.485 44.672 9.603.857 10.123 24.664 2.075 27.824-12.531 4.92-20.089 14.741-20.727 18.073 1.522 2.591 13.137 8.546 33.875 8.546 20.768 0 32.387-5.973 33.882-8.558-.573-3.228-8.143-13.118-20.733-18.062-8.055-3.162-7.498-26.859 2.202-27.557 39.241-2.827 75.978-17.647 106.237-42.86 2.979-2.481 7.355-2.284 10.099.454l24.856 24.809c2.186 2.181 2.811 5.478 1.577 8.307-5.374 12.319-3.762 24.583-1.852 27.391 1.219.261 6.183-.055 15.151-5.752 8.185-5.199 16.228 7.462 8.043 12.662-14.586 9.262-26.86 10.672-33.679 3.867-7.039-7.025-8.26-24.152-3.272-39.288l-16.659-16.627c-29.791 23.191-64.959 37.393-102.463 41.378v1.386c14.247 7.18 25.52 20.153 25.52 30.09-.001 16.05-25.354 23.36-48.91 23.36z"/><path d="m179.642 231.498c-28.181 0-51.107-22.874-51.107-50.99s22.926-50.99 51.107-50.99 51.107 22.874 51.107 50.99-22.926 50.99-51.107 50.99zm0-86.98c-19.909 0-36.107 16.145-36.107 35.99s16.198 35.99 36.107 35.99c19.91 0 36.107-16.145 36.107-35.99s-16.197-35.99-36.107-35.99z"/><path d="m379.612 321.583c-16.158 0-29.304-13.119-29.304-29.245 0-16.125 13.146-29.245 29.304-29.245s29.304 13.119 29.304 29.245-13.145 29.245-29.304 29.245zm0-43.489c-7.887 0-14.304 6.39-14.304 14.245s6.417 14.245 14.304 14.245 14.304-6.39 14.304-14.245-6.417-14.245-14.304-14.245z"/><path d="m307.429 404.134c-21.953 0-39.813-17.821-39.813-39.727 0-21.905 17.86-39.727 39.813-39.727s39.813 17.821 39.813 39.727-17.86 39.727-39.813 39.727zm0-64.453c-13.683 0-24.813 11.092-24.813 24.727s11.131 24.727 24.813 24.727 24.813-11.092 24.813-24.727-11.131-24.727-24.813-24.727z"/></g></g></svg>